# xmcd CD database file
#
# Track frame offsets:
#	150
#	8387
#	20057
#	35925
#	53187
#	68802
#	85057
#	101002
#	118185
#	136847
#	154530
#	170517
#
# Disc length: 2483 seconds
#
# Revision: 2
# Processed by: cddbd v1.5.2PL0 Copyright (c) Steve Scherf et al.
# Submitted via: CDex 1.79
#
DISCID=9709b10c
DTITLE=Jamie Lee Thurston - Cowboy Up
DYEAR=1996
DGENRE=Country
TTITLE0=8 Day Clock
TTITLE1=Heartbroke and Honky-Tonkin
TTITLE2=Save Me
TTITLE3=1-800-Country
TTITLE4=Cowboy Up
TTITLE5=Ready Already
TTITLE6=Country To The Bone
TTITLE7=Honky Tonk Rockin` 
TTITLE8=The Lonely One
TTITLE9=Drownin` In The Wishin` Well
TTITLE10=Wild And Ready
TTITLE11=I Still Cry
EXTD=YEAR: 1996
EXTT0=
EXTT1=
EXTT2=
EXTT3=
EXTT4=
EXTT5=
EXTT6=
EXTT7=
EXTT8=
EXTT9=
EXTT10=
EXTT11=
PLAYORDER=
